<svg t="1649838039747" class="icon" viewBox="0 0 1024 1024" version="1.1" xmlns="http://www.w3.org/2000/svg" p-id="5730" width="200" height="200"><path d="M807.424 98.304H160.256c-34.304 0-62.464 29.184-62.464 64.512v700.416c0 35.84 28.16 64.512 62.464 64.512h266.24c17.408 0 31.744-14.336 31.744-31.744 0-17.92-14.336-32.256-32.256-32.256H160.256l-0.512-0.512V162.816l0.512-0.512h647.168l0.512 0.512V456.704c0 16.896 13.824 30.72 30.72 30.72s30.208-13.312 30.72-29.696V162.816c0-35.328-27.648-64.512-61.952-64.512z" p-id="5731"></path><path d="M677.888 256h-424.96c-17.408 0-32.256 14.336-32.256 32.256 0 17.408 14.336 32.256 32.256 32.256h424.96c17.408 0 32.256-14.336 32.256-32.256s-14.336-32.256-32.256-32.256zM423.936 415.744H252.928c-17.408 0-32.256 14.336-32.256 32.256s14.336 32.256 32.256 32.256h171.52c17.408 0 32.256-14.336 32.256-32.256s-14.848-32.256-32.768-32.256z m-81.92 160.256H252.928c-17.408 0-32.256 14.336-32.256 32.256 0 17.408 14.336 32.256 32.256 32.256h89.088c17.408 0 32.256-14.336 32.256-32.256-0.512-17.92-14.848-32.256-32.256-32.256zM631.808 870.912c-104.448 0-189.952-84.992-189.952-189.952s84.992-189.44 189.952-189.44 189.952 84.992 189.952 189.952-85.504 189.44-189.952 189.44z m0-317.952c-70.656 0-128.512 57.856-128.512 128.512s57.344 128.512 128.512 128.512c70.656 0 128.512-57.856 128.512-128.512S702.464 552.96 631.808 552.96z" p-id="5732"></path><path d="M848.384 925.696c-7.68 0-15.36-3.072-21.504-8.704L732.16 824.32c-12.288-11.776-12.288-31.232-0.512-43.52 11.776-12.288 31.232-12.288 43.52-0.512l94.72 92.672c12.288 11.776 12.288 31.232 0.512 43.52-6.144 6.144-13.824 9.216-22.016 9.216z" p-id="5733"></path></svg>