<svg t="1649837967225" class="icon" viewBox="0 0 1024 1024" version="1.1" xmlns="http://www.w3.org/2000/svg" p-id="3832" width="200" height="200"><path d="M870.4 307.2h-51.2V153.6a102.5024 102.5024 0 0 0-102.4-102.4H204.8a102.5024 102.5024 0 0 0-102.4 102.4v716.8a102.5024 102.5024 0 0 0 102.4 102.4h665.6a102.5024 102.5024 0 0 0 102.4-102.4V409.6a102.5024 102.5024 0 0 0-102.4-102.4zM153.6 870.4V153.6c0-28.2624 22.9376-51.2 51.2-51.2h512c28.2624 0 51.2 22.9376 51.2 51.2v768H204.8c-28.2624 0-51.2-22.9376-51.2-51.2z m768 0c0 28.2624-22.9376 51.2-51.2 51.2h-51.2V358.4h51.2c28.2624 0 51.2 22.9376 51.2 51.2v460.8z" p-id="3833" fill="#515151"></path><path d="M230.4 395.008c3.3792 0 6.656-1.28 9.0624-3.5328a11.6224 11.6224 0 0 0 3.7376-8.448V307.5584l58.4704 82.1248a13.056 13.056 0 0 0 14.336 4.8128 12.0832 12.0832 0 0 0 9.1136-11.4688V267.9808C325.12 261.376 319.3856 256 312.32 256s-12.8 5.376-12.8 11.9808v75.4688L241.0496 261.3248a13.2608 13.2608 0 0 0-14.336-4.8128 12.1344 12.1344 0 0 0-9.1136 11.4688v115.0464c0 3.1744 1.3312 6.1952 3.7376 8.448 2.4064 2.2528 5.632 3.5328 9.0624 3.5328z m153.6 0h81.92c7.0656 0 12.8-5.376 12.8-11.9808 0-6.656-5.7344-11.9808-12.8-11.9808H396.8v-33.536H465.92c7.0656 0 12.8-5.376 12.8-11.9808 0-6.656-5.7344-11.9808-12.8-11.9808H396.8v-33.5872H465.92c7.0656 0 12.8-5.376 12.8-11.9808 0-6.656-5.7344-11.9808-12.8-11.9808H384a13.2608 13.2608 0 0 0-9.0624 3.5328 11.6224 11.6224 0 0 0-3.7376 8.448v115.0464c0 3.1744 1.3312 6.2464 3.7376 8.448 2.4064 2.2528 5.632 3.5328 9.0624 3.5328z m149.8112 0a13.1072 13.1072 0 0 0 13.312-7.9872l31.4368-83.0976 31.4368 83.0976a12.8 12.8 0 0 0 12.0832 7.9872h1.2288a12.4928 12.4928 0 0 0 11.4688-10.24l17.92-115.0464c1.024-6.5536-3.84-12.6464-10.8544-13.568-6.9632-0.9216-13.4144 3.584-14.5408 10.1376l-10.4448 67.072-26.2144-69.376c-3.6864-9.5232-20.48-9.5232-24.1664 0l-26.2144 69.376-10.4448-67.072c-1.1264-6.5024-7.5776-11.008-14.5408-10.1376-7.0144 0.9216-11.8272 7.0144-10.8032 13.568l17.92 115.0464a12.4928 12.4928 0 0 0 11.4176 10.24z m106.1888 136.6016h-409.6c-14.1312 0-25.6 10.752-25.6 23.9616 0 13.2608 11.4688 23.9616 25.6 23.9616h409.6c14.1312 0 25.6-10.752 25.6-23.9616s-11.4688-23.9616-25.6-23.9616z m0 119.808h-409.6c-14.1312 0-25.6 10.752-25.6 24.0128 0 13.2096 11.4688 23.9616 25.6 23.9616h409.6c14.1312 0 25.6-10.752 25.6-23.9616 0-13.2608-11.4688-24.0128-25.6-24.0128z m0 119.808h-409.6c-14.1312 0-25.6 10.752-25.6 24.0128 0 13.2096 11.4688 23.9616 25.6 23.9616h409.6c14.1312 0 25.6-10.752 25.6-23.9616 0-13.2608-11.4688-23.9616-25.6-23.9616z" p-id="3834" fill="#515151"></path></svg>