<svg t="1649140418146" class="icon" viewBox="0 0 1024 1024" version="1.1" xmlns="http://www.w3.org/2000/svg" p-id="14074" width="200" height="200"><path d="M459.909565 311.652174c0.26713-8.281043 1.691826-16.473043 4.274087-24.442435L302.881391 125.907478 192.690087 236.098783 244.424348 287.833043 220.560696 311.652174H459.909565z m-316.68313 0.890435l-13.490087-13.445566a89.043478 89.043478 0 0 1 0-125.952L239.972174 62.953739a89.043478 89.043478 0 0 1 125.952 0l154.490435 154.490435 154.445913-154.490435a89.043478 89.043478 0 0 1 125.907478 0L910.914783 173.189565a89.043478 89.043478 0 0 1 0 125.952l-16.473044 16.473044A89.043478 89.043478 0 0 1 957.217391 400.695652v178.086957a89.043478 89.043478 0 0 1-89.043478 89.043478h-311.652174v267.130435h222.608696v-264.281044h89.043478V934.956522a89.043478 89.043478 0 0 1-89.043478 89.043478H244.869565a89.043478 89.043478 0 0 1-89.043478-89.043478v-264.726261l89.043478 0.044522V934.956522h222.608696v-267.130435H155.826087a89.043478 89.043478 0 0 1-89.043478-89.043478V400.695652a89.043478 89.043478 0 0 1 76.443826-88.153043zM795.291826 311.652174l-11.442087-11.442087 64.111304-64.111304-110.191304-110.191305-161.302261 161.302261c2.582261 7.969391 4.006957 16.161391 4.318609 24.442435h214.505739zM556.521739 400.695652v178.086957h311.652174V400.695652h-311.652174z m-89.043478 178.086957V400.695652H155.826087v178.086957h311.652174z" p-id="14075" fill="#515151"></path></svg>