<svg t="1649837998424" class="icon" viewBox="0 0 1024 1024" version="1.1" xmlns="http://www.w3.org/2000/svg" p-id="4893" width="200" height="200"><path d="M767.904 235.235H255.968v96.756h201.639V788.7h107.698v-456.71h202.599zM76.726 122.225a45.434 45.434 0 0 1 45.435-45.435h188.968V0.064H122.161A122.225 122.225 0 0 0 0 122.224v188.521h76.726v-188.52zM901.711 0.064H712.743V76.79H901.71a45.434 45.434 0 0 1 45.435 45.435v188.52h76.726v-188.52A122.225 122.225 0 0 0 901.712 0.064zM76.726 901.711v-188.52H0v188.52a122.225 122.225 0 0 0 122.16 122.161h188.97v-76.726H122.16a45.434 45.434 0 0 1-45.434-45.435z m870.42 0a45.434 45.434 0 0 1-45.435 45.435H712.743v76.726H901.71a122.225 122.225 0 0 0 122.161-122.16V713.19h-76.726v188.52z" p-id="4894"></path></svg>