<svg t="1646138356941" class="icon" viewBox="0 0 1024 1024" version="1.1" xmlns="http://www.w3.org/2000/svg" p-id="1440" width="200" height="200"><path d="M291.788701 1011.958041a137.687756 137.687756 0 0 1-137.519168-137.495084v-638.223811H91.434592A42.989793 42.989793 0 0 1 48.517052 193.345689a42.893457 42.893457 0 0 1 42.91754-42.893457H932.661743a42.869373 42.869373 0 0 1 42.797121 42.893457 42.965709 42.965709 0 0 1-42.797121 42.893457H867.394327l1.90263 637.886636a136.628063 136.628063 0 0 1-40.075639 97.467614 136.91707 136.91707 0 0 1-97.32311 40.412813z m-51.804506-137.495084a51.780422 51.780422 0 0 0 51.804506 51.684087h440.037255a51.539583 51.539583 0 0 0 36.631638-15.196952 51.660003 51.660003 0 0 0 15.052449-36.631639l-2.023049-638.223811H240.008279z m233.782586-125.790301a44.579331 44.579331 0 0 1-13.631497-32.826379 43.519639 43.519639 0 0 1 13.390658-32.730044 45.759443 45.759443 0 0 1 33.187638-13.029399 45.518604 45.518604 0 0 1 33.308058 12.692224 43.856814 43.856814 0 0 1 13.872336 33.067219 46.626464 46.626464 0 0 1-14.45035 33.548897 47.734324 47.734324 0 0 1-32.609624 12.547721H506.135566a45.759443 45.759443 0 0 1-32.368785-13.270239z m33.067219-110.78602h-3.203161a32.248365 32.248365 0 0 1-25.360365-17.316336 32.441037 32.441037 0 0 1 0.818853-30.706995l1.78221-3.444a249.581636 249.581636 0 0 1 52.406604-57.006633l6.526742-7.225175 2.601063-3.660755a36.125876 36.125876 0 0 0 7.225175-20.880757 37.956254 37.956254 0 0 0-9.127805-27.383414 39.04003 39.04003 0 0 0-28.683945-9.513147 36.872478 36.872478 0 0 0-33.308058 13.872336 42.074604 42.074604 0 0 0-5.442965 13.872337 31.574016 31.574016 0 0 1-30.706995 23.939414h-16.015805a31.309093 31.309093 0 0 1-22.759302-13.535162 31.718519 31.718519 0 0 1-4.503693-26.058799 101.152453 101.152453 0 0 1 27.503834-47.421233 118.252034 118.252034 0 0 1 88.436145-33.067219 114.061433 114.061433 0 0 1 79.476927 27.383414 94.938802 94.938802 0 0 1 31.766687 74.780564 101.152453 101.152453 0 0 1-20.278658 63.774213 275.784938 275.784938 0 0 1-23.000141 22.301708l-20.519498 18.111106a64.207724 64.207724 0 0 0-12.041959 16.280728 26.155134 26.155134 0 0 0-2.263888 4.142434l-1.541371 2.962321a31.501764 31.501764 0 0 1-27.383414 15.991722zM322.736535 97.780705a42.893457 42.893457 0 0 1-42.917541-42.893457A42.893457 42.893457 0 0 1 322.736535 11.993791H701.215297a42.893457 42.893457 0 0 1 42.917541 42.893457A42.893457 42.893457 0 0 1 701.215297 97.780705z" fill="#6E7072" p-id="1441"></path></svg>