<svg t="1649842882449" class="icon" viewBox="0 0 1024 1024" version="1.1" xmlns="http://www.w3.org/2000/svg" p-id="7914" width="200" height="200"><path d="M669.4 727.8l52.3 15.3-5.4-78.7zM362.7 358.9c-4.2 9.3-5.5 18.2-3.9 26.7 1.7 9.6 6.9 17.5 15.4 23.3s19.5 7.6 32.7 5.3c12-2.1 21.6-5.8 29.1-11.2 7.4-5.3 13.1-11.5 17-18.5l-65.8-51.1c-12.2 7.7-20.4 16.2-24.5 25.5zM372.6 276.2c3.6 5.3 8.8 10.2 16 14.5 7.7-5.7 13.2-11.9 16.2-18.4 3.1-6.5 3.9-13.4 2.6-20.8-1.5-8.4-4-15-7.6-19.6-3.6-4.5-9.9-6.1-18.7-4.5-8.6 1.5-13.5 5.1-15.1 11.1-1.5 5.8-1.7 12.6-0.2 20.3 1 6.2 3.2 12.1 6.8 17.4zM290.6 622.4c-17.6 0-31.8 8.6-43 25.5-11.1 17-16.6 40.6-16.6 70.8 0 29.4 5.9 53 17.8 70.8 11.9 17.8 25.8 26.7 41.7 26.7 7.1 0 13.5-1.2 19.5-3.4 5.8-2.3 10.5-4.9 13.8-7.8l-32.6-30.3 34.5-35.9 17.6 17.6c2.1-5.8 3.3-12.2 3.8-19.3 0.5-6.9 0.6-14.1 0.6-21.7 0-24.7-5.1-46.5-15.3-65.1-10.3-18.6-24.2-27.9-41.8-27.9z" p-id="7915"></path><path d="M490.5 487H109c-24.7 0-45 20.2-45 45v381.4c0 24.7 20.2 45 45 45h381.4c24.7 0 45-20.2 45-45V532c0.1-24.8-20.2-45-44.9-45z m-93.7 380.3l-35.9-32c-8.1 7.7-18.2 13.9-30.1 18.4-12 4.5-25.4 6.8-40.4 6.8-36 0-65.6-12.8-88.8-38.6-23.1-25.8-34.6-59.5-34.6-101.2 0-36.8 10.6-69.8 31.8-98.9 21.2-29.1 52.2-43.6 92.7-43.6 39.7 0 69.6 13.8 89.6 41.5 20.1 27.7 30.1 59.7 30.1 96 0 15.9-1.9 31-5.8 45.2-3.8 14.1-8.7 25.7-14.3 34.7l40.9 38-35.2 33.7zM930.6 546.7l-229.5-66.9c-1.7 9.9-5.2 19.4-11.1 27.8-10.3 14.9-25.9 24.7-43.6 27.8l-86.6 15.2v229.3l160.9-202.2 38.5 11.2 28.2 268.9-58.7-17.1-5.3-47.3-82.2-24-29.9 37.1-51.3-15v92.2l251.2 73.2c21.5 6.3 44.3-6.2 50.5-27.7l96.7-331.8c6.3-21.7-6.1-44.4-27.8-50.7z" p-id="7916"></path><path d="M677.2 461.3l-63.6-360.2C609.4 77.7 587 62 563.6 66l-360.1 63.6c-23.4 4.2-39.1 26.6-34.9 50l49.9 282.8h272c36.2 0 66.1 27.9 69.2 63.3l82.6-14.6c23.3-3.9 39-26.5 34.9-49.8z m-164.1-31.2l-27.6-20.8c-5.3 10.1-13.8 19.6-25.2 28.3-11.4 8.8-28.5 15.2-51.2 19.3-24.7 4.4-46.6 1.1-65.4-10-18.9-11.1-30.1-26.1-33.4-45.5-3-17-1.4-33.9 4.8-50.7 6.2-16.9 18.8-30.1 37.8-39.8-8.9-5.6-16.9-11.6-23.8-18.2-6.9-6.5-11.3-15.1-13.2-25.4-2.9-15.8 0.5-30.8 9.7-44.8s26.3-23.2 51-27.6c26.3-4.6 45.6-1.8 58 8.6 12.4 10.3 20.1 24.2 23.2 41.6 1.9 10.8 0.5 23.1-4.3 36.6s-14.9 24-30.4 31l44.7 36.4c1.5-4.6 2.5-9.6 2.7-14.9 0.2-5.2-0.1-10.9-1.2-17.1l44.6-7.8c2 11.2 2 22.8 0.2 34.9-1.8 12.1-4.8 22.5-8.8 31.1l62.4 45.2-54.6 9.6z" p-id="7917"></path></svg>