<svg t="1649140280542" class="icon" viewBox="0 0 1194 1024" version="1.1" xmlns="http://www.w3.org/2000/svg" p-id="11415" width="200" height="200"><path d="M524.515556 955.733333H159.288889C71.68 955.733333 0 884.053333 0 796.444444V159.288889C0 71.68 71.68 0 159.288889 0h864.711111c87.608889 0 159.288889 71.68 159.288889 159.288889v251.448889c0 12.515556-10.24 22.755556-22.755556 22.755555s-22.755556-10.24-22.755555-22.755555V159.288889c0-62.577778-51.2-113.777778-113.777778-113.777778H159.288889C96.711111 45.511111 45.511111 96.711111 45.511111 159.288889v637.155555c0 62.577778 51.2 113.777778 113.777778 113.777778h365.226667c12.515556 0 22.755556 10.24 22.755555 22.755556s-10.24 22.755556-22.755555 22.755555z" p-id="11416" fill="#515151"></path><path d="M898.844444 1024c-162.702222 0-295.822222-133.12-295.822222-295.822222s133.12-295.822222 295.822222-295.822222 295.822222 133.12 295.822223 295.822222-133.12 295.822222-295.822223 295.822222z m0-546.133333c-137.671111 0-250.311111 112.64-250.311111 250.311111s112.64 250.311111 250.311111 250.311111 250.311111-112.64 250.311112-250.311111-112.64-250.311111-250.311112-250.311111z" p-id="11417" fill="#515151"></path><path d="M45.511111 284.444444h1103.644445c12.515556 0 22.755556 10.24 22.755555 22.755556s-10.24 22.755556-22.755555 22.755556H45.511111c-12.515556 0-22.755556-10.24-22.755555-22.755556s10.24-22.755556 22.755555-22.755556z" p-id="11418" fill="#515151"></path><path d="M905.671111 622.364444l-114.915555 136.533334-10.24 45.511111 45.511111-19.342222 113.777777-134.257778-34.133333-28.444445z m70.542222 25.031112L836.266667 813.511111c-1.137778 1.137778-2.275556 2.275556-4.551111 3.413333l-75.093334 31.857778c-7.964444 4.551111-18.204444-3.413333-15.928889-12.515555l18.204445-78.506667c0-1.137778 1.137778-3.413333 2.275555-4.551111l141.084445-168.391111c4.551111-4.551111 11.377778-5.688889 15.928889-1.137778l56.888889 47.786667c4.551111 3.413333 4.551111 10.24 1.137777 15.928889z m0 69.404444h77.368889c6.826667 0 11.377778 5.688889 11.377778 11.377778 0 6.826667-5.688889 11.377778-11.377778 11.377778h-77.368889c-6.826667 0-11.377778-5.688889-11.377777-11.377778 0-6.826667 5.688889-11.377778 11.377777-11.377778z m-44.373333 50.062222h124.017778c6.826667 0 11.377778 5.688889 11.377778 11.377778s-5.688889 11.377778-11.377778 11.377778H931.84c-6.826667 0-11.377778-5.688889-11.377778-11.377778s4.551111-11.377778 11.377778-11.377778z m-31.857778 51.2h155.875556c6.826667 0 11.377778 5.688889 11.377778 11.377778 0 6.826667-5.688889 11.377778-11.377778 11.377778H899.982222c-6.826667 0-11.377778-5.688889-11.377778-11.377778s5.688889-11.377778 11.377778-11.377778zM415.288889 532.48c0 36.408889-21.617778 69.404444-54.613333 83.057778s-71.68 6.826667-97.848889-19.342222-32.995556-63.715556-19.342223-97.848889 46.648889-55.751111 83.057778-55.751111c23.893333 0 46.648889 9.102222 63.715556 26.168888 14.791111 18.204444 25.031111 40.96 25.031111 63.715556z m-6.826667 122.88c-6.826667-4.551111-15.928889-4.551111-22.755555 0-17.066667 13.653333-36.408889 20.48-55.751111 20.48-19.342222 0-37.546667-6.826667-53.475556-20.48-7.964444-6.826667-18.204444-6.826667-26.168889-2.275556-39.822222 25.031111-68.266667 69.404444-68.266667 120.604445 1.137778 12.515556 9.102222 21.617778 20.48 22.755555 38.684444 3.413333 85.333333 5.688889 126.293334 5.688889 43.235556 0 92.16 0 131.982222-3.413333 10.24-1.137778 18.204444-20.48 18.204444-20.48-1.137778-52.337778-29.582222-97.848889-70.542222-122.88z" p-id="11419" fill="#515151"></path></svg>