<svg t="1649139948410" class="icon" viewBox="0 0 1024 1024" version="1.1" xmlns="http://www.w3.org/2000/svg" p-id="7332" width="200" height="200"><path d="M692.4 308.3v-49.1c0-4.5-3.7-8.2-8.2-8.2H291.3c-4.5 0-8.2 3.7-8.2 8.2v49.1c0 4.5 3.7 8.2 8.2 8.2h392.9c4.5 0 8.2-3.7 8.2-8.2z m-401.1 90c-4.5 0-8.2 3.7-8.2 8.2v49.1c0 4.5 3.7 8.2 8.2 8.2h188.3c4.5 0 8.2-3.7 8.2-8.2v-49.1c0-4.5-3.7-8.2-8.2-8.2H291.3z m0 0" fill="#515151" p-id="7333"></path><path d="M438.6 860.8H201.3V140.5h572.9v351.9c0 4.5 3.7 8.2 8.2 8.2h57.3c4.5 0 8.2-3.7 8.2-8.2V99.6c0-18.1-14.6-32.7-32.7-32.7H160.3c-18.1 0-32.7 14.6-32.7 32.7v802.1c0 18.1 14.6 32.7 32.7 32.7h278.3c4.5 0 8.2-3.7 8.2-8.2V869c0-4.5-3.7-8.2-8.2-8.2z m0 0" fill="#515151" p-id="7334"></path><path d="M894.6 913.5L799.2 818c22.8-30.2 36.4-67.8 36.4-108.7 0-99.4-80.6-180.1-180.1-180.1-99.4 0-180.1 80.6-180.1 180.1 0 99.4 80.6 180.1 180.1 180.1 36.6 0 70.6-10.9 99-29.7l96.9 96.9c1.6 1.6 3.7 2.4 5.7 2.4s4.2-0.8 5.7-2.4l31.7-31.7c3.3-3.1 3.3-8.3 0.1-11.4z m-239.1-89.6c-63.3 0-114.6-51.3-114.6-114.6s51.3-114.6 114.6-114.6S770.1 646 770.1 709.3c0 63.4-51.2 114.6-114.6 114.6z m0 0" fill="#515151" p-id="7335"></path></svg>